<?xml version="1.0" encoding="utf-8"?>
<!-- Generator: Adobe Illustrator 16.0.0, SVG Export Plug-In . SVG Version: 6.00 Build 0)  -->
<!DOCTYPE svg PUBLIC "-//W3C//DTD SVG 1.1//EN" "http://www.w3.org/Graphics/SVG/1.1/DTD/svg11.dtd">
<svg version="1.1" id="Layer_1" xmlns="http://www.w3.org/2000/svg" xmlns:xlink="http://www.w3.org/1999/xlink" x="0px" y="0px"
	 width="200px" height="200px" viewBox="0 0 200 200" enable-background="new 0 0 200 200" xml:space="preserve">
<path d="M100,199.145c-54.756,0-99.146-44.389-99.146-99.145S45.244,0.855,100,0.855S199.146,45.244,199.146,100
	S154.757,199.145,100,199.145z M100,119.829L100,119.829L100,119.829L100,119.829L100,119.829z M100,11.573
	c-48.837,0-88.427,39.59-88.427,88.427c0,22.131,8.187,42.312,21.624,57.822c8.679-19.877,30.797-34.614,57.643-37.408
	c0.224-0.025,0.438-0.08,0.663-0.104l8.496-0.48c0,0,0.001,0,0.002,0l0,0l0,0l0,0c0.001,0,0.002,0,0.003,0c0,0-0.002,0-0.002,0
	c5.659,0,8.497,0.48,8.497,0.48c0.221,0.024,0.432,0.077,0.652,0.104c26.785,2.784,48.855,17.464,57.579,37.272
	c0.009,0.076-0.024,0.162-0.019,0.238c1.566-1.803,3.041-3.677,4.459-5.603c-1.391,1.886-2.834,3.731-4.365,5.501
	c-0.021-0.048-0.055-0.09-0.075-0.137c1.518-1.757,3.062-3.492,4.44-5.364c10.799-14.661,17.257-32.716,17.257-52.321
	C188.427,51.163,148.837,11.573,100,11.573z M100,108.498c-17.209,0-31.16-13.951-31.16-31.159c0-17.209,13.951-31.16,31.16-31.16
	s31.16,13.951,31.16,31.16C131.16,94.547,117.209,108.498,100,108.498z M100,119.829c-0.001,0-0.002,0-0.002,0
	C99.998,119.829,99.999,119.829,100,119.829L100,119.829z M100,119.829C100,119.829,100,119.829,100,119.829
	C99.059,119.829,98.749,119.829,100,119.829z"/>
</svg>
